HIERARCHY
ROOT hip
{
  OFFSET 0.00112043 5.09927 -9.65472
  CHANNELS 6 Xposition Yposition Zposition Zrotation Xrotation Yrotation
  JOINT abdomen
  {
    OFFSET 0 -1.186 -1.5018
    CHANNELS 3 Zrotation Xrotation Yrotation
    JOINT abdomen2
    {
      OFFSET 0 9.964 0.2134
      CHANNELS 3 Zrotation Xrotation Yrotation
      JOINT chest
      {
        OFFSET 0 13.134 -3.2573
        CHANNELS 3 Zrotation Xrotation Yrotation
        JOINT neck
        {
          OFFSET 0 20.686 -1.6905
          CHANNELS 3 Zrotation Xrotation Yrotation
          JOINT head
          {
            OFFSET 0 7.238 -0.1237
            CHANNELS 3 Zrotation Xrotation Yrotation
            End Site
            {
              OFFSET 0 0 0
            }
          }
        }
        JOINT lCollar
        {
          OFFSET 1.7069 20.075 5.0056
          CHANNELS 3 Zrotation Xrotation Yrotation
          JOINT lShldr
          {
            OFFSET 13.6458 -0.047 -4.849
            CHANNELS 3 Zrotation Xrotation Yrotation
            JOINT lForeArm
            {
              OFFSET 28.3255 -0.9759 2.2888
              CHANNELS 3 Zrotation Xrotation Yrotation
              JOINT lHand
              {
                OFFSET 22.1583 -0.53 10.8316
                CHANNELS 3 Zrotation Xrotation Yrotation
                JOINT lThumb1
                {
                  OFFSET 0.786 0.112 2.5817
                  CHANNELS 3 Zrotation Xrotation Yrotation
                  JOINT lThumb2
                  {
                    OFFSET 0.3601 -0.878 4.2331
                    CHANNELS 3 Zrotation Xrotation Yrotation
                    JOINT lThumb2_End
                    {
                      OFFSET 1.8127 -1.216 2.2227
                      CHANNELS 3 Zrotation Xrotation Yrotation
                      End Site
                      {
                        OFFSET 0.0181 -0.0122 0.0222
                      }
                    }
                  }
                }
                JOINT lCarpal1
                {
                  OFFSET 0.9571 1.114 1.7695
                  CHANNELS 3 Zrotation Xrotation Yrotation
                  JOINT lIndex1
                  {
                    OFFSET 4.1246 0.487 4.1451
                    CHANNELS 3 Zrotation Xrotation Yrotation
                    JOINT lIndex2
                    {
                      OFFSET 3.4052 -1.454 2.7682
                      CHANNELS 3 Zrotation Xrotation Yrotation
                      JOINT lIndex2_End
                      {
                        OFFSET 1.4531 -1.795 1.2713
                        CHANNELS 3 Zrotation Xrotation Yrotation
                        End Site
                        {
                          OFFSET 0.0145 -0.0179 0.0127
                        }
                      }
                    }
                  }
                  JOINT lMid1
                  {
                    OFFSET 5.6954 0.21 2.1184
                    CHANNELS 3 Zrotation Xrotation Yrotation
                    JOINT lMid2
                    {
                      OFFSET 3.9766 -1.54 2.3863
                      CHANNELS 3 Zrotation Xrotation Yrotation
                      JOINT lMid2_End
                      {
                        OFFSET 1.4042 -1.926 1.125
                        CHANNELS 3 Zrotation Xrotation Yrotation
                        End Site
                        {
                          OFFSET 0.014 -0.0193 0.0113
                        }
                      }
                    }
                  }
                }
                JOINT lCarpal2
                {
                  OFFSET 2.0956 0.66 -0.3894
                  CHANNELS 3 Zrotation Xrotation Yrotation
                  JOINT lRing1
                  {
                    OFFSET 5.0395 -0.09 2.4971
                    CHANNELS 3 Zrotation Xrotation Yrotation
                    JOINT lRing2
                    {
                      OFFSET 3.7921 -1.552 1.4806
                      CHANNELS 3 Zrotation Xrotation Yrotation
                      JOINT lRing2_End
                      {
                        OFFSET 1.4655 -1.808 0.9609
                        CHANNELS 3 Zrotation Xrotation Yrotation
                        End Site
                        {
                          OFFSET 0.0147 -0.0181 0.0096
                        }
                      }
                    }
                  }
                  JOINT lPinky1
                  {
                    OFFSET 4.9141 -1.269 0.3591
                    CHANNELS 3 Zrotation Xrotation Yrotation
                    JOINT lPinky2
                    {
                      OFFSET 3.1477 -1.685 0.8462
                      CHANNELS 3 Zrotation Xrotation Yrotation
                      JOINT lPinky2_End
                      {
                        OFFSET 0.8055 -1.585 0.7955
                        CHANNELS 3 Zrotation Xrotation Yrotation
                        End Site
                        {
                          OFFSET 0.0081 -0.0158 0.008
                        }
                      }
                    }
                  }
                }
              }
            }
          }
        }
        JOINT rCollar
        {
          OFFSET -1.7069 20.075 5.0056
          CHANNELS 3 Zrotation Xrotation Yrotation
          JOINT rShldr
          {
            OFFSET -13.6458 -0.047 -4.849
            CHANNELS 3 Zrotation Xrotation Yrotation
            JOINT rForeArm
            {
              OFFSET -28.3255 -0.9759 2.2888
              CHANNELS 3 Zrotation Xrotation Yrotation
              JOINT rHand
              {
                OFFSET -22.1583 -0.53 10.8316
                CHANNELS 3 Zrotation Xrotation Yrotation
                JOINT rThumb1
                {
                  OFFSET -0.786 0.112 2.5817
                  CHANNELS 3 Zrotation Xrotation Yrotation
                  JOINT rThumb2
                  {
                    OFFSET -0.3601 -0.878 4.2331
                    CHANNELS 3 Zrotation Xrotation Yrotation
                    JOINT rThumb2_End
                    {
                      OFFSET -1.8127 -1.216 2.2227
                      CHANNELS 3 Zrotation Xrotation Yrotation
                      End Site
                      {
                        OFFSET -0.0181 -0.0122 0.0222
                      }
                    }
                  }
                }
                JOINT rCarpal1
                {
                  OFFSET -0.9571 1.114 1.7695
                  CHANNELS 3 Zrotation Xrotation Yrotation
                  JOINT rIndex1
                  {
                    OFFSET -4.1246 0.487 4.1451
                    CHANNELS 3 Zrotation Xrotation Yrotation
                    JOINT rIndex2
                    {
                      OFFSET -3.4052 -1.454 2.7682
                      CHANNELS 3 Zrotation Xrotation Yrotation
                      JOINT rIndex2_End
                      {
                        OFFSET -1.4531 -1.795 1.2713
                        CHANNELS 3 Zrotation Xrotation Yrotation
                        End Site
                        {
                          OFFSET -0.0145 -0.018 0.0127
                        }
                      }
                    }
                  }
                  JOINT rMid1
                  {
                    OFFSET -5.6954 0.21 2.1184
                    CHANNELS 3 Zrotation Xrotation Yrotation
                    JOINT rMid2
                    {
                      OFFSET -3.9766 -1.54 2.3863
                      CHANNELS 3 Zrotation Xrotation Yrotation
                      JOINT rMid2_End
                      {
                        OFFSET -1.4042 -1.926 1.125
                        CHANNELS 3 Zrotation Xrotation Yrotation
                        End Site
                        {
                          OFFSET -0.014 -0.0193 0.0113
                        }
                      }
                    }
                  }
                }
                JOINT rCarpal2
                {
                  OFFSET -2.0956 0.66 -0.3894
                  CHANNELS 3 Zrotation Xrotation Yrotation
                  JOINT rRing1
                  {
                    OFFSET -5.0395 -0.09 2.4971
                    CHANNELS 3 Zrotation Xrotation Yrotation
                    JOINT rRing2
                    {
                      OFFSET -3.7921 -1.552 1.4806
                      CHANNELS 3 Zrotation Xrotation Yrotation
                      JOINT rRing2_End
                      {
                        OFFSET -1.4655 -1.808 0.9609
                        CHANNELS 3 Zrotation Xrotation Yrotation
                        End Site
                        {
                          OFFSET -0.0147 -0.0181 0.0096
                        }
                      }
                    }
                  }
                  JOINT rPinky1
                  {
                    OFFSET -4.9141 -1.269 0.3592
                    CHANNELS 3 Zrotation Xrotation Yrotation
                    JOINT rPinky2
                    {
                      OFFSET -3.1477 -1.685 0.8462
                      CHANNELS 3 Zrotation Xrotation Yrotation
                      JOINT rPinky2_End
                      {
                        OFFSET -0.8055 -1.585 0.7955
                        CHANNELS 3 Zrotation Xrotation Yrotation
                        End Site
                        {
                          OFFSET -0.0081 -0.0158 0.008
                        }
                      }
                    }
                  }
                }
              }
            }
          }
        }
      }
    }
  }
  JOINT lThigh
  {
    OFFSET 8.367 -8.2066 0.5982
    CHANNELS 3 Zrotation Xrotation Yrotation
    JOINT lShin
    {
      OFFSET 2.1923 -43.463 -0.4932
      CHANNELS 3 Zrotation Xrotation Yrotation
      JOINT lFoot
      {
        OFFSET 0.7333 -45.8593 -2.6451
        CHANNELS 3 Zrotation Xrotation Yrotation
        End Site
        {
          OFFSET 2.6618 -4.2699 12.3931
        }
      }
    }
  }
  JOINT rThigh
  {
    OFFSET -8.367 -8.2066 0.5982
    CHANNELS 3 Zrotation Xrotation Yrotation
    JOINT rShin
    {
      OFFSET -2.1923 -43.463 -0.4931
      CHANNELS 3 Zrotation Xrotation Yrotation
      JOINT rFoot
      {
        OFFSET -0.7333 -45.8593 -2.6451
        CHANNELS 3 Zrotation Xrotation Yrotation
        End Site
        {
          OFFSET -2.6618 -4.2699 12.3931
        }
      }
    }
  }
}
MOTION
Frames:	4
Frame Time:	0.0333333
0 91.7903 2.51682 0 0 -0 0 0 -0 0 0 -0 0 0 -0 0 0 -0 0 0 -0 0 0 -0 1.66051 0.0835086 5.75766 -0.0175111 0.895433 15.7816 7.95139e-016 -1.98785e-016 -0 5.46658e-016 -3.97569e-016 -0 5.96354e-016 0 -0 3.97569e-016 1.98785e-016 9.54166e-015 1.49089e-016 -3.97569e-016 -0 6.4605e-016 0 3.18055e-015 5.96354e-016 0 3.18055e-015 8.94531e-016 -1.98785e-016 6.36111e-015 6.4605e-016 0 3.18055e-015 5.96354e-016 0 3.18055e-015 8.94531e-016 -1.98785e-016 6.36111e-015 1.49089e-016 -3.97569e-016 -0 6.4605e-016 0 3.18055e-015 5.96354e-016 0 3.18055e-015 8.94531e-016 -1.98785e-016 6.36111e-015 6.4605e-016 0 3.18055e-015 5.96354e-016 0 3.18055e-015 8.94531e-016 -1.98785e-016 6.36111e-015 0 0 -0 -1.4496 0.0636048 -5.0245 -1.74811 1.20616 -16.8394 -1.19271e-015 1.98785e-016 -3.18055e-015 -3.97569e-016 1.98785e-016 -3.18055e-015 -2.98177e-016 1.98785e-016 -3.18055e-015 -2.98177e-016 3.97569e-016 -0 4.96962e-016 0 -6.36111e-015 -9.93923e-017 3.97569e-016 -0 -8.94531e-016 5.96354e-016 -0 -3.97569e-016 3.97569e-016 -0 -9.93923e-017 3.97569e-016 -0 -8.94531e-016 5.96354e-016 -0 -3.97569e-016 3.97569e-016 -0 4.96962e-016 0 -6.36111e-015 -9.93923e-017 3.97569e-016 -0 -8.94531e-016 5.96354e-016 -0 -3.97569e-016 3.97569e-016 -0 -9.93923e-017 3.97569e-016 -0 -8.94531e-016 5.96354e-016 -0 -3.97569e-016 3.97569e-016 -0 -4.66111 -0.998717 0.12318 0.00986924 1.54847 0.176523 4.65186 -0.572283 -0.254274 4.66111 -0.998765 -0.123176 -0.00986867 1.54869 -0.176537 -4.65186 -0.572453 0.25427 
-59.6398 28.3529 -7.70129 -0 -69.6329 -0 -0.117982 2.48205 -0.0831097 -0.232684 4.96426 -0.161325 -0.232684 4.96425 -0.161326 1.80549e-006 21.4792 1.91919e-006 -0.0260388 13.263 0.011095 17.3363 0.215879 3.57244 25.4722 -1.16001 5.65238 -1.25163 -11.6691 -66.2792 -39.4171 -16.807 -14.3956 1.60818e-006 -2.70449e-006 8.64261e-007 5.32035e-006 -2.32043e-007 2.56106e-006 -6.36111e-015 -3.18055e-015 -1.59028e-015 9.54166e-015 3.18055e-015 -0 1.60818e-006 -2.70449e-006 8.64261e-007 5.32035e-006 -2.32043e-007 2.56106e-006 -6.36111e-015 -3.18055e-015 -1.59028e-015 1.60818e-006 -2.70449e-006 8.64261e-007 5.32035e-006 -2.32043e-007 2.56106e-006 -6.36111e-015 -3.18055e-015 -1.59028e-015 9.54166e-015 3.18055e-015 -0 1.60818e-006 -2.70449e-006 8.64261e-007 5.32035e-006 -2.32043e-007 2.56106e-006 -6.36111e-015 -3.18055e-015 -1.59028e-015 1.60818e-006 -2.70449e-006 8.64261e-007 5.32035e-006 -2.32043e-007 2.56106e-006 -6.36111e-015 -3.18055e-015 -1.59028e-015 -17.3281 0.22 -3.58492 -25.2867 -1.18359 -4.93709 0.352574 -13.1282 65.0087 39.48 -17.0357 13.7156 0 0 -0 -3.18055e-015 -9.54166e-015 1.59028e-015 -3.18055e-015 -6.36111e-015 1.59028e-015 0 3.18055e-015 -0 -0 -3.18055e-015 -0 1.76556e-031 -3.18055e-015 3.18055e-015 -6.36111e-015 -6.36111e-015 -1.59028e-015 -0 -3.18055e-015 -0 1.76556e-031 -3.18055e-015 3.18055e-015 -6.36111e-015 -6.36111e-015 -1.59028e-015 0 3.18055e-015 -0 -0 -3.18055e-015 -0 1.76556e-031 -3.18055e-015 3.18055e-015 -6.36111e-015 -6.36111e-015 -1.59028e-015 -0 -3.18055e-015 -0 1.76556e-031 -3.18055e-015 3.18055e-015 -6.36111e-015 -6.36111e-015 -1.59028e-015 12.5717 -34.5947 15.6159 155.19 81.9963 -156.16 18.2719 10.6836 7.00938 -14.831 -25.3479 -13.9471 27.2853 78.6217 -33.6758 -1.30901 14.1011 2.97262 
-86.7246 -3.04704 -8.6798 -180 -79.0323 -180 -0.170875 3.57928 -0.130305 -0.334558 7.15897 -0.250626 -0.334558 7.15897 -0.250626 -7.73226e-006 31.1453 7.42566e-006 0.095676 19.5736 -0.0399073 24.9769 0.410297 5.07508 36.3648 -1.7518 5.70423 1.83165 19.3444 -80.7529 -60.7191 -22.676 -20.4002 9.54166e-015 -6.36111e-015 -9.54166e-015 -9.54166e-015 -1.27222e-014 -1.27222e-014 0 0 -6.36111e-015 9.54166e-015 -3.18055e-015 -9.54166e-015 -6.36111e-015 -3.18055e-015 -6.36111e-015 3.18055e-015 -6.36111e-015 -3.18055e-015 -0 0 3.18055e-015 -6.36111e-015 -3.18055e-015 -6.36111e-015 3.18055e-015 -6.36111e-015 -3.18055e-015 -0 0 3.18055e-015 9.54166e-015 -3.18055e-015 -9.54166e-015 -6.36111e-015 -3.18055e-015 -6.36111e-015 3.18055e-015 -6.36111e-015 -3.18055e-015 -0 0 3.18055e-015 -6.36111e-015 -3.18055e-015 -6.36111e-015 3.18055e-015 -6.36111e-015 -3.18055e-015 -0 0 3.18055e-015 -25.0194 0.399026 -5.04398 -36.0772 -1.75327 -4.89817 -1.91556 17.855 79.1677 60.79 -22.8341 19.6418 -2.67215e-006 1.41138e-006 -1.07985e-005 3.18055e-015 -3.18055e-015 -3.18055e-015 -1.3262e-006 -6.79555e-009 -6.34208e-006 -1.76556e-031 -3.18055e-015 -3.18055e-015 -2.67215e-006 1.41138e-006 -1.07985e-005 3.18055e-015 -6.36111e-015 -6.36111e-015 -1.3262e-006 -6.79554e-009 -6.34208e-006 -2.67215e-006 1.41138e-006 -1.07985e-005 3.18055e-015 -6.36111e-015 -6.36111e-015 -1.3262e-006 -6.79554e-009 -6.34208e-006 -1.76556e-031 -3.18055e-015 -3.18055e-015 -2.67215e-006 1.41138e-006 -1.07985e-005 3.18055e-015 -6.36111e-015 -6.36111e-015 -1.3262e-006 -6.79554e-009 -6.34208e-006 -2.67215e-006 1.41138e-006 -1.07985e-005 3.18055e-015 -6.36111e-015 -6.36111e-015 -1.3262e-006 -6.79554e-009 -6.34208e-006 27.6601 -53.9263 34.4141 169.454 38.0367 -166.193 22.3187 21.5965 11.3631 -28.761 -36.617 -24.1248 159.418 62.5748 -166.74 0.65831 21.0591 3.24474 
-80.6888 3.92871 -8.64944 -180 -85.9956 -180 -0.176216 3.29222 -0.123929 -0.346145 6.58477 -0.238287 -0.346145 6.58479 -0.238287 2.62218e-006 28.9969 1.99543e-006 0.367165 18.9319 -0.154123 22.9442 0.585176 4.50804 34.3418 -1.69162 5.91337 0.419702 11.438 -80.3979 -55.8865 -22.16 -18.3437 -1.48526e-006 -6.88065e-007 4.52118e-007 3.18055e-015 3.18055e-015 -0 -1.48526e-006 -6.88065e-007 4.52118e-007 3.53113e-031 3.18055e-015 -6.36111e-015 -1.48526e-006 -6.88065e-007 4.52118e-007 3.18055e-015 -3.18055e-015 3.18055e-015 -1.48526e-006 -6.88065e-007 4.52118e-007 -1.48526e-006 -6.88065e-007 4.52118e-007 3.18055e-015 -3.18055e-015 3.18055e-015 -1.48526e-006 -6.88065e-007 4.52118e-007 3.53113e-031 3.18055e-015 -6.36111e-015 -1.48526e-006 -6.88065e-007 4.52118e-007 3.18055e-015 -3.18055e-015 3.18055e-015 -1.48526e-006 -6.88065e-007 4.52118e-007 -1.48526e-006 -6.88065e-007 4.52118e-007 3.18055e-015 -3.18055e-015 3.18055e-015 -1.48526e-006 -6.88065e-007 4.52118e-007 -23.0969 0.539026 -4.37714 -33.8243 -1.64541 -4.90769 -0.756542 10.094 78.1082 56.044 -21.8707 18.1076 -9.54166e-015 0 -0 1.05934e-030 -6.36111e-015 9.54166e-015 -3.18055e-015 -9.54166e-015 -0 -9.54166e-015 3.18055e-015 -0 9.54166e-015 3.18055e-015 1.90833e-014 -3.18055e-015 -3.18055e-015 9.54166e-015 -3.18055e-015 -6.36111e-015 9.54166e-015 9.54166e-015 3.18055e-015 1.90833e-014 -3.18055e-015 -3.18055e-015 9.54166e-015 -3.18055e-015 -6.36111e-015 9.54166e-015 -9.54166e-015 3.18055e-015 -0 9.54166e-015 3.18055e-015 1.90833e-014 -3.18055e-015 -3.18055e-015 9.54166e-015 -3.18055e-015 -6.36111e-015 9.54166e-015 9.54166e-015 3.18055e-015 1.90833e-014 -3.18055e-015 -3.18055e-015 9.54166e-015 -3.18055e-015 -6.36111e-015 9.54166e-015 22.6451 -48.818 27.3667 169.086 47.9643 -167.533 21.3512 17.9419 10.3977 -24.4774 -34.3422 -20.5293 153.805 70.1995 -160.953 0.996721 19.376 2.77489 
